# xmcd
#
# Track frame offsets: 
#        182
#        13180
#        30192
#        45855
#
# Disc length: 926 seconds
#
# Revision: 0
# Processed by: cddbd v1.5.2PL0 Copyright (c) Steve Scherf et al.
# Submitted via: ExactAudioCopy v1.0b1
#
DISCID=1d039c04
DTITLE=The Robert Cray Band - Bad Influence
DYEAR=1988
DGENRE=Blues
TTITLE0=Bad influence
TTITLE1=Change Of Heart, Change Of Mind
TTITLE2=Phone Booth
TTITLE3=I´ve Slipped Her Mind
EXTD=
EXTT0=
EXTT1=
EXTT2=
EXTT3=
PLAYORDER=
